<?xml version="1.0" encoding="UTF-8"?>
<svg id="Layer_1" xmlns="http://www.w3.org/2000/svg" version="1.1" viewBox="0 0 3840 2160">
  <!-- Generator: Adobe Illustrator 29.1.0, SVG Export Plug-In . SVG Version: 2.1.0 Build 142)  -->
  <defs>
    <style>
      .st0 {
        fill: #fff;
      }
    </style>
  </defs>
  <path class="st0" d="M2062,922v315h-284v-315h284ZM1968.6,1192.4c1.1,2.1,2.2,4.1,3.2,6.3,2.6,6,9.4,30.5,12.7,33.2s7-1.2,9.2-1.8,4.1,1.1,6.6-.2c6.9-3.6,11.6-15.3,16.2-20.8s5.6-3.5,7.6-7.4c11.9-22,23.7-61.3,28.5-85.5,1.3-6.5,4.2-22.2,2.3-27.8s-2.6-3.5-2.9-5.1c-.4-2.8,1.6-7.2.6-11.6-.5-2.3-3.4-5.4-4.5-8.5-2.2-5.9-.8-9.3-1.5-13.5s-4.1-10.4-4.3-14.6c-.3-6.3,6.7-13,4.2-22.4-.6-2.3-3.9-5.3-4.3-8.7-1.4-10.6,8.5-23.8,8.1-33.6-.3-6.2-9.4-18.4-10.9-26.4-.1-.6-.6-8.1-.6-8.6.1-1.3,1.1-2.2,2-3-5.2-3.9-11.9-1.5-17.5-1.4s-5.8-1.5-8.7-.9c-15.2,2.9-35.3,11.9-48.1,21-3.9,2.8-11.8,11.4-15.7,12.4s-4.5-1.7-7.5-1.7c-5.4,0-13.6,2.2-19,2.2s-27.2-14.5-34.8-18.3c-14.3-7-47.1-19.5-62.3-20.7-13.1-1-20,4.5-31.4,9.4-3.6,3,1.6,18.5,2,23,.8,8,.6,24.8,0,33-.8,12.3-7.1,28.7-6.1,40s4.2,9.2,4,12-2.2,2.5-2.7,4.2c-7.2,20.5-10.7,72.6-10,94.8s7.5,23.4,8.7,34.1-1.1,6.5-.7,8.7,3.5,4.1,4.6,6.5c2,4.6,2.7,14.6,4.5,20.5,2.8,8.9,5.9,13.8,16.2,14.8,13.8,1.4,34.3-13.3,40.7-25.3,5.8-11,8.6-13.3,15.2-22.8s11.9-20.2,19.5-29.2,13.1-12.5,19.1-19.2c3.3-2.1,20.7-1.5,23,.9,4,4,0,5.5.3,8.6,1.2,15.9,26.3,38.6,34.2,53.4Z"/>
  <path d="M1968.6,1192.4c-7.9-14.8-33-37.5-34.2-53.4-.2-3.1,3.6-4.6-.3-8.6s-19.7-3-23-.9c-6,6.7-13.4,12.4-19.1,19.2s-12.8,19.6-19.5,29.2-9.4,11.8-15.2,22.8c-6.3,12-26.8,26.6-40.7,25.3-10.3-1-13.4-5.9-16.2-14.8s-2.5-15.8-4.5-20.5-4.1-3.7-4.6-6.5,1.1-5.3.7-8.7c-1.2-10.7-8.3-20.9-8.7-34.1-.7-22.2,2.8-74.3,10-94.8s2.6-2.3,2.7-4.2c.2-2.8-3.6-7.6-4-12-1-11.3,5.3-27.7,6.1-40,.5-8.3.7-25,0-33s-5.6-20-2-23c11.4-4.8,18.3-10.4,31.4-9.4,15.2,1.2,48,13.7,62.3,20.7s28.2,18.3,34.8,18.3,13.6-2.2,19-2.2,5.5,2.3,7.5,1.7c3.8-1.1,11.8-9.7,15.7-12.4,12.8-9.1,32.9-18.1,48.1-21s5.7,1,8.7.9c5.6,0,12.3-2.5,17.5,1.4-.9.8-1.9,1.8-2,3s.5,8,.6,8.6c1.5,8,10.6,20.2,10.9,26.4.5,9.7-9.5,22.9-8.1,33.6.5,3.4,3.7,6.4,4.3,8.7,2.4,9.4-4.6,16.1-4.2,22.4s3.6,10.3,4.3,14.6-.7,7.6,1.5,13.5,4,6.2,4.5,8.5c1,4.4-1.1,8.8-.6,11.6s2.3,3.3,2.9,5.1c1.9,5.6-1,21.3-2.3,27.8-4.9,24.1-16.6,63.5-28.5,85.5s-5.6,4.9-7.6,7.4c-4.6,5.5-9.4,17.3-16.2,20.8s-4.3-.4-6.6.2-4.7,5.6-9.2,1.8-10.2-27.2-12.7-33.2-2.1-4.2-3.2-6.3ZM2016,958.5v-16.5l2,13c4.3-2.4,2.8-8,3-12,2.8-.6,1.9,1,2,3l3-1c.4.3-2.5,4.7-2.8,5.8s.6,2.6.4,3.6c-.4,1.9-4.5,9,.3,8.6l.5-3c3.2,1.1-1.6,6,2,6,1.9-1.2,1.3-2.8,1.5-4.5.7-4.8,1.1-9.7,2-14.5l-5,13c-1.4-7.8,5.6-14.8.8-21.8-6-3.7-30.8,9.5-37.1,13s-31.8,21.6-34,21.5c-4.4,0-11.9-3.7-17.2-3.7s-9.1,2.5-13.1,2.9-15.3-4.5-20-6.8c-22.6-10.8-34.1-18.6-59.3-26.7s-21.1-10.6-33-2.9c-2.4,1.6-8.8,6.1-4.6,8.4.7-6.5,6.9-1.8,10.5-3,.5,2-2,2.7-2,4.5s3.1,7.4,2.9,8.9-10.7,9.8-5.3,9.6,4.6-3.4,5.1-3.9,4.7-6.7,4.9-7.1c1.3-2.8.2-6.9.5-10l2.5,6c1.6,0-1.4-7.2,2.5-6,.8,3.2-.8,12,3.5,13s3-5.6,5.5-6l-2,8c1.8,2,6.4-8.9,8-8,4.4,4.4-1.5,8.7,2.5,13,3.1.9,2.3-1.8,2.5-2,2.9-1.8,1.3,4.7,5,4l2-4c-.8,7.9,13.6,7.7,18.7,11.3s1,2.3,2.3,3.1c3.5,2.4,23.3,17.2,26,14.6l1-8c3.4,1.1.2,4.8,0,7.6s1.1,4.3.9,6.7l-4.9,4.7c.4-4.8-2.8-3.5-5.7-4.8-17.9-8.2-38.3-15.9-55.3-24.7-5.2-2.7-13.8-6.9-15.5-12.6-6.8-.3-8.7,19.3-2,23,5.6-.6-1.1-7.7,3.5-7,1.1,1.2-.5,8.9,3,8,0-1.8.1-3.5-.2-5.3s-4.9-8.6-.8-7.7l3.1,9.9c5.2,1.3,4.1-5.4,9.9-1.4s1.2,3.5,2.1,4.9,2.9,1,2.8,4.1l7-.5c-2.3,4.9.8,3.8,1.7,5.3s.1,4.5,2.8,5.7l1-5c1.9,4.9,3.5,7.8,9.5,8,.4-.4-.8-7.6,2-8v8.9c11.4,4.5,22.6,7.9,34.5,10.1l.5-3c-.7.3-2.5,2.1-2-.5,1.1-4.9,6.6-19,8.8-24.2s1.4-3.1,2.7-4.3l-7.5,22c6.1.2,4.1-7.2,8.5-10l.5,2,3-2c-2,6-10.1,11.1-5.5,18,5.2-3.3,5.7-12.8,12.5-13l2,18c-1.4.2-1.5-1.8-1.7-2.8-.7-2.8-.9-6.3-1.3-9.2l-4.1.5c-1.1,6.4-6.6,11.8-4.5,18.6s5.2,5.6.5,4.5c2.9,5,.5,10.2,2.2,15.8l1.5,1.5h6.4c.7,4.4-2.3,8.2,0,12.1-3.9.8-1.3-5.6-2-7.5-5.2-2.1-3.8,3.6-4,7s.8,2.9-2,2.5c-.5-3.4,2.9-7.3-.5-10l-4.5,10v-14s-4,12-4,12l-2-4c-1.9-2.1-3.6,12.6-.5,16s2.4,0,3,.9c1.2,1.9.6,5.3,2.5,7.6s7,2.2,6,4l-5.5,3.5c-1.4,0-2.8-11.3-6.5-12l2,10c-6.2-2.8-1.6,4-4,8l-2-6c-3.1-1-2.3,4.2-1.8,5.4s4.4,1.5,2.9,5.6l6-5c-.3,1.9-1.2,7-2,8.3s-3.6.4-4,2.7c6.6,1.1,5.7-5.8,10.5-8l1,3c2.2,3.5,6.6-3.6,8-5l-2.5,7,3,2c-3.6,2.7-10.3-1.1-11.4-.8s-3.4,3.8-6.4,3.1c-7.6,8.5,6.3,26.8,2.8,5.8l3.6,7.9c5.1-1.7,10.3-.9,15.4.1v-10s1,6,1,6l2-5c2.4-1.5,1.9,3.9,4,2s1.5-13.3.9-15.4l-1.4-1.3-2.5.7c-1.3-7.4.2-14.1,3-21l-9,6v-7.6c-.1-2.2,2.8-1.3,4.6-3.3s1.6-3,1.4-5.1l-5,2.5c1.9-3.2,6.9-3.7,6-7.5-1.3.2-4.8,5.6-5,1.5,2.1-1.9,6.6-4,7-7.1s-3.6-14-3.1-17.8,1.7-.5,2-1.4c.7-2.1,1-6.5,0-8.5s-3.8-.9,0-6.3l-2-.5v-16s2,7,2,7c6.7,0,.3-12.1,1-13,3.7-1,2.4,5.2,3,6,3.9-1.8,2.5-6.6,3.4-10.1,7.6-.5,4.2-6.3,8.1-10.9l2.5,2.6-3,8.4c1.9,2.4,4.4-7,4.7-7.8.6-1.5-.6-2.7,2.2-2.2l-2.5,10,4.5-8,1.5,4c1.8-2.3,8.1-3.9,7.3-7.3s-3.4-2.3-2.8-4.6c2-.5,2.6,2,4.3,1.9s2.7-2.4,4.7-1.9l-2,6,7-2c-.8-4.3-1.9-8.4,1.5-12,.7,4.3-3.9,13.9,4.5,8.3v-8.3c2,.4.4,6.6,2.6,7.1,5,1,7.5-3.6,6.4-8.1l1,6c4.3.2,7.7-1.1,7-6l3.5,4,1.5-5,1,4c6.1,1.7,5.5-6.7,6-11l2,1.5,2-1ZM2030,977c1.8,1.6,10.7-11.1,5.5-11s-1,8.5-5,1l-16.1,6.9,3.6,20.1-4-2-2,7h6s-1,4-1,4c8.2-2.6-1.2-11,7.8-14.6l-.8-12.4c2.1-.2.8,6.2,3.5,5s-1.6-7.5,1.5-9l1,5ZM2033,993c8-2.4,7.4-13.9,4.5-20l-6.6,7.5,3,2.5,3-5-4,15ZM2009.9,976.1l-55.7,21,2.9,11.9,6-5.7,1-3.3,1,6,3-2-1,10,3.5-1,.5-4,3,2,3.5-12c1.5,2.4-1.1,11.1,2.1,11.9,5.2-2.6,22.4-5.8,25.3-9.5s.9-2.4,1.1-3.4l3,3c3.5-10.3,7.9-14.4.9-24.9ZM1836,981c-1.2-.8-4.5,2.5-4.8,3.7-1.5,5.6,9.1,2.5,4.8-3.7ZM1808,995c1-3.6,1.6-8.4-2-11l-2,14c.2.2,3.4-2.5,4-3-1,3.7-3.3,5.5-4,9l8.5-9c.7-.2.7,1,.5,1.5-.4,1.1-6.9,9.3-8,10.1-1.6,1.3-2.8.4-2.9.5-.9,1.2-3.1,10.3-3.2,12.3-.2,3.4.5,6.3,1.1,9.5l7-9-3.1,11.4,2.1,1.1c-.7,3.9-4.9,14.2,2,11.9l-1-7.5c2.3,0,1.2,5.1,3.5,4,3.3-1.6,1.9-11.2,1.1-14.1h-2.5c0,0,4-21.9,4-21.9l-5.5,7c-2.6-8.8,10.6-12.8,10-21l-3.5,3-.5-2c-2.2-.3-3.8,1.8-5.5,3ZM1900.9,1018.1c-4.8-1.3-9.9-2.3-14.7-3.8-15.5-5-30.5-9.4-46.2-13.8s-14.3-1.1-19.5-7.5c-2,0-6.6,17.9-7.5,20.5l2,1c1-1.5,3.3-1.7,4.4-2.6,2.1-1.7.7-3.7,2.6-3.9-.3,2.2.2,2.7,2,3.6l-2,6.4,4.7.4,5.3-12.4-2.5,15c3.8-1,1.7-3.9,4-6l.7,1.9,2.8-.9-3,6c6.5-.2,9-4.5,5-10,3.5-.4,5.4,8.6,6.5,9,.6-4,3.5.3,5-2l-.5-4.5,2-.5,2,13c5.1.7,2.3-1.5,2.1-4.6s-.9-3.6.9-3.4l2.2,10.8c2.9-.2,7,2.2,9.4,2.1s6.3-5,7.5-3.9l-3,5c5.2,1.3,7.2-3,11-4,.3.2-3.6,3.3-.5,4s7.3-2.3,7.5-6l2,.5c-3.1,4.7,1.6,7,4.7,4.2s4-12.7,3.2-13.7ZM1952,1036c1.6-1.4,1.2-4.7,4-4l1.5,10c5.9-2.4.5-4.2.5-4.5,0-.5.8-4.7,2-4.4l2,7.3c1,1.9,4.4-.3,4.8-2.1s-3.2-8,1.2-7.3v5c3.4,0,2.3-4.4,7-3-.9,2.3-6.9,5.4-3.5,8l9.5-9-3,4.5,2,.5-2,3c1.2.9,8.8-4.7,9.5,0,3.6-3.2-.1-7.4-.5-11l3,5.3,2,.7c.6-3.4,1.7-8.3,5-10-1,4.3-1.2,7.6,0,12h3s-1-8-1-8c4.2-.7.7,7.9,5,7l1-8,2.5,6,2.5-5,1.5,2c7.9-4.3,5.1-11.3,8.5-18-1.2-1-7.6,5.1-7,0l11.5-5,1.5,5c8.6-.4,6-12.1,9-18-3.1.5-3.3,8.4-4,9s-1.7-.9-3-.6c-3.5,1-3.3,5.4-8,2-2,1.5-4.6,5.7-6.7,6.4s-2.7-.5-4.1-.1c-20.7,6.7-40.5,14-62.2,17.3,1.8,4.2-4.8,7.2-5,12,3.8,0,6.5-4.6,10-5l-6,7,7.8-2.2.2-4.8c-.7,0-1.3,0-2,0ZM1948,1001l-3.8,2.6,1.7,7.2c-3.2.4-3.7,3.4-5.2,4.8-2.5,2.3-6.2.9-4.7,8.3,1.9.2.6-2.6,1.9-3.6s2.6.6,4.1.2c5.3-1.5,6.4-14.9,6-19.6ZM1953,1009c-2.3-.4-1.6.1-2.2,1.3s-3.3,8.2-2.8,8.7c8.7.8,6.4-4.1,5-10ZM2035,1022l-.5-9-9.5,7.5,2,1-2,4.5c3.3-2.1,5.6-4.8,10-4ZM1912,1041c2.9.2,3.9-3.1,3.9-5.4s-2.9-20.2-5.9-16.6c-1.1,2.6,1.3,5,1.5,6.5.4,3.3-2.7,5.9,2.4,8l-1.9,7.5ZM1820,1022h-2c-4.7,10.7,6.3,12.7,9,20.9,3.7-1.8,2.7-8.9,8-8-.4,5.2-7,8.7-5,14l3.5-4,.5,6h3s1-6,1-6c3.9-1,.5,3.8,3,4l5-9c-1,3.4-3.4,7.1,2,8,.3-2,1.6-4.3,4-4-2.2,3.3,1.1,5.5,1,9h2.9c.4-2.9,1.2-4.3,4-5-1.8,4.2,0,5.5,2,9-1.6,1.6-5-7.1-6-2.5s8.6,4.5,12,4.5l-1-12,2.5,4,6-6c1.7,1.1-.4,2.2-1,3-11,14.3-2.8,11.3,10.4,9.9l1.6-14.9,1.5,13,2.5-9,.5,8.4,2.5.6c1.6-.5,3.2-10.3,4.5-12.3s4.3-1.5,3-5.7l-3,4v-4c-16.4,1.7-30.3-.4-46-4.5-9.9-2.6-17.5-5.7-26.9-9.1s-5.4.7-5.1-2.4ZM2035,1024c-.7-.8-11.9,6.2-12.5,7s-.6,1.1-.5,2h4c2.3,2-8.9,7.1-10,7.5-12.3,4.5-55,12.2-67.3,10.3s-2.7-4.2-6.7-2.8l2,13.6c4.3-.8,3.5,1.5,6,3.4.9-4.9-5.7-7.5-2.5-12,2.2,4,3.8,5.9,8,8l.5-2.3,2-.7c-.3,2.6.4,5,3,6l-.5-8c2.3,4,4,9.6,2.5,14h3c-.8-1.9,0-5.9,2-7-1.4,9.8,3,8.3,10.9,7.9l2.6-5.9-.5,6,8.1-.4.9-8.6c2.8-3.7,1.7,7.7,2,8,2.8.3,3.6-2.9,4-5,1.7-.3.8,1.2,1,2.3.3,2.2,6.4.4,5-3.3l1,3c.6.6,7.2-1.2,8.3-1.9,1.9-1.3,1.4-6.9,3.2-7.1s.3,4.8.5,5c3.1,1.4,7.9-6.1,5-7.5l-2,.5,6-17c2.7,1.7-1.9,6.5-1,9l3-2.5-2,9.5c9.1-6.2,13.4-13,9-24l-4,.5c3.1-2.5,6.6-2.3,6-7.5ZM1942,1026c-1-.9-10,6.3-5.5,8s2.9-5.4,6.5-4l-1-4ZM1826,1047c-3-4.3-4.3-10.1-9-13l1,10,3-4c-.1,3.8.6,7.1,5,7ZM1813,1055c.3-1.9-1.7-6.5-3.5-6.7-5.6-.6-.9,12.7-1.5,15.1s-2.6,1-3,2.3,1.7,5.1,1,7.7-2.1.9-2.8,2.4-4,12.7-4.2,13.9c-.3,2.9.2,5.4,2.5,7.4,1.7-4.3,1-20.3,4.5-22.5s3,1,4-1l-3-3.9,3-8.5c2,.5.3,3.5,1.9,5.6s3.2,2,4.1,1.4.3-4,.6-5,1.8-1.4,2.2-2.7-1-5.4,2.7-6.3,4.1,4.8,4.1,5.5c0,1.3-4.7,6.9-2.6,10.5l6-4-3,5,4.1-.4,1.4-6.6,3.5,7,3-4c-.3,5,0,9.4,6,9,.7-.8-1.7-6.1,2-5,1.2,1.2-.4,6.9,3,6l.5-7c3.1,2.2-1.2,5.4,1.5,7.5s2.6.6,3.5,1.5l2-4c4.1,9.4,9.4,3.5,15-1l-1.5,6c5.5.2,9.2-1.8,12.5-6l2,2c5.2-2.5,6.8-8.4,8.5-13.5-3.9-3-7.2,2.5-7.6,2.5-9.3,0-27.9-.1-36.6-2.3s-7.3-3.8-9.7-4.3-3.5.9-5,.1-1.5-2.8-2.7-3.6c-4.3-3-11.7-5.1-16.8-7-2,1.9,3,7.7-1.5,7ZM2037.7,1053.7c1.8-2.1.6-4.1-1.2-5.7l-8.5,8.5,1.5,2.5,3.5-.5-12,8,9-1.5c.3,1.5-.2,1.6-1,2.4-1.8,1.7-23.4,9.4-26.9,10.1-16,3.4-33.6.6-49.6-1.1l-3.5,1.5c.6,3.2,6.1,1.3,6.9,2.1v2.1s3.1.8,3.1.8c-1.4,3.7-5.1.5-8,1v3c6.7,2.2,10.9.7,17-2-1.4,2.9-5.7,4.1-5,8,4.8.8,6.8-.5,10.5-3l-.5,3c3.2.1,5.6.4,8.6-.9s4.5-5,6.4-3.6l-2,3.5c2.2-1.5,6.4-.9,8.3-2s.5-2.2.9-2.7c1.9-1.7,4.6-3,6.2-5.3l3,3c.7,0,4.2-5,5.5-5.4s2.4.6,3.4.3c1.5-.5,1.5-4.4,5.6-2.9l-.5,5c6.9-2.4,7.8-7.7,13.5-11-1.1,1.5-1.2,5.2-1.6,6-.6,1.2-2.4,1.9-2.8,2.9s1,2.6-.4,4.6c-4,5.4-35.1,12.3-42.7,13.3s-14.3,1.2-21.4,1.1l1,2-10-1c3,3.5,9.8,2.8,14,3l-7,2c-2.8,3.6,15.7,5.2,17,2l-2,6c4,.5,6.4-3,8.5-4,3.1-1.5-1.1,3.3,2,3s8.4-2.3,11-5c1.5,5.2,8.4-1.7,10.4-2.4s6.3,1.6,7.9-2.2l-.9-6.3,2,3,3-3v4s2.5-1,2.5-1l-.5-9c2.8.8,1.4,4.6,2.4,6s6.1,1.5,7.1,0l.4-7.1,1,5c2.9.5,4.7-1.3,5-4,3.6,1.7,2.1,6,2,9-6.7-2.9-8.8,4.2-14.1,7.4-17.9,10.6-41.1,10.5-60.5,13.6s-4.8-.9-5.4-.5c-4.2,2.5.8,2.1,1.5,2.5,3.9,2.1,3.2,2.9,3.6,7h3.8s.6-2.9.6-2.9c5.2,7.5,8.8,11.6,15.4,2.4l-3.9-5.9c1.6-1.7,3.9,1.6,4,3.5l4-2c.6,1.9-2.2,2.8-1.9,4.4s5.5,7.1,6.9,5.6v-4s3,3,3,3c2.5.9,1.7-1.1,2.3-1.6,3-2.3,5.1-4,7.1-7.4l.5,3,4-3c1.6,1.7-5.5,4.9-3.5,7,2.9-1.9,7.1-2,9.9-4.1s5.1-7.6,8.6-6.4l-2,2.5c6,.6,6.9-4.1,10.5-7s6.5-3.5,7.2-4.3,3.7-12.3,3.2-12.8l-4,.5,4-2.5c-3.6-4.2,1.2-6.6.8-9.3-.7-5.3-4.5-4-7.4-3.8-7.4.5,5.1-7.5,5.7-8.3,3.1-4.6-3.6-14.6-9.1-12.6-.9-1,7.8-9.1,0-7.5.6-.9,2.1-1.1,2.7-1.8ZM1855,1058l-5.5-9c-4.1,5-.5,9.7,5.5,9ZM1961,1070c1.1-1.1-6-10.1-9-9,.8,4.8,3.8,8.8,9,9ZM1894.2,1070.2c1-1.7,6.5-3-.2-7.2l-3,9.5,1.9,1.8-2.9,6.6c4.8-1.4,3.1-8.9,4.2-10.8ZM1797,1087c2.9-2.4,4.9-10.1,5.6-14,1.4-7.5-12.6,3.2-9.1,8l4.5-5-1,11ZM1825,1096c2.7,1.5,3.6,3.8,3,7l6-3,.5,3-2.5,2c4,.1,6.7,2.4,10-1,.4,7.8,11.9,2.1,12.5-4l4.5,1.5-2,3.5c2.3,2,11.9-5.4,13.7-7.3s.4-2.5,1.3-3.2,2.5.4,3.7-.2c4.4-2,10.6-5.3,14.3-8.2-11.7,2.3-23.6,4.1-35.5,4l-3.5,3c-.4-4.2-5.8-3.1-9-4.5s-28.3-15-30.3-14.4c-4,1.1-2.8,9.1.8,10.9l1.5-2c-.5,2.8.3,12.3,3.5,13,6.5,1.3-2.8-10.9-1-13l4.5,10v-6c4.9,4.7,4.8,3,4,9-.5-.3-1.9-1.2-2-1v3s-2.5-1.8-2.5-1.8l-2.5,2.3,7,2.5c.2-1.6-.2-3.4,0-5ZM1898.3,1076.7c-.5-.7-.2-1.9-.3-2.7-1.2-1.4-4.4,9.5-4,11,2.9.2,4.1-2.7,4-5l3,2c1.2-4.1-1.8-4-2.7-5.3ZM1946.8,1086.2c-.8-1.4-7.1-3.6-7.8-.7s5.8,4.1,8,3.5c0-.9.3-1.9-.2-2.8ZM1810,1096c3.7-2,2.4-9.4-1-11l1,11ZM1889,1091c-5.5-.6-11.4,2.5-13,8l5.9-2.6,7.1-5.4ZM1800,1108c-1.3-4.2-.6-10.9-4-14-3.3,6.3-.3,10.6,3.5,16l2.5-2c.5,1.8.3,4.7,3,4v-4c10.7,1.4.4-9.3-5-10-.3,2.3.8,4.3,1,6.5s.7,3.7-1,3.5ZM1794,1102c-1.6-1.7-4.6,5.8-4.8,6.7-1,5.2,3.2,7.4,3.5,10.9s-.9,3.8-.8,5.9,4.2,18.6,7.1,15.5l-2-5,4,.5c-.5-2.5-3.7-6.1-4-8.1s1.3-6.3,1-9.9c-.4-5.3-3.1-11.3-4-16.5ZM1953.9,1104.1l-5.9-1.1,2,2.5c-5.2,1.8.7,4.4,4,3.5v-4.9ZM1879,1120c-2.1,1.6-3.9,4.5-7,4l3-14,4,.6,2-4.6c-13,1.9-32.7,11.5-45.4,9.9-2.3-.3-7-1.8-9.4-2.6-7.6-2.6-16-10.9-13.2,4.7l5-4-3,7.4,2,1.6.5-3c2.4,6.5,3.5,8.1,9.8,11.2,6.1,3,8.9,3,15.2,3.3s1.7,1.4,2.8,1.3c4.4-.3,9.1-13.6,12.2-16.8,1.7,5-4,9.2-4.5,14,3.9,3.7,12.1-15.3,15.5-17l-2.5,12c3.2,2.5,23.1-9.2,22-10-3.2,0-5.7,1.3-9,2,2.8-2.1,4.9-4.2,8-5.5l-2-.5,1-4-3.5,1-.5,6-2-4-4.5,1-1.5,7c1.7-1.2,3.4-.7,5-1ZM1944,1120c-.7-3.7,3.3-8.1-2.5-10-2.8.6,0,7,.5,8.5s-.8,1.9,2,1.5ZM1949,1117c-.8,3.8,8.3,7,9,3.5s-7.3-3.8-9-3.5ZM1997,1141c4.3,2.1,4.7,8.5,11.5,8,2-1.5-2.8-7.8-2.5-8,6.8-2.5,3,7.9,8.1,6.6s-.7-6.1,1-10.6l3.6,7.9c13.5-3.1,23.6-13.7,23.4-27.9-1.8-.4-2.4.9-3.5,2-3,2.8-5.8,7.8-7.9,10s-7.9,8.1-10.1,9-1.6.3-1.5-.5l9-8c-2.4-.3-5.3,2.4-8.5,3.5-6.8,2.5-14.8,4.1-21.9,5.9-1,0-.7,1.3-.6,2-5.3-2.5-9.9,2-15.6,2-5.4,0-12.8-1.8-18.7-1.4l-2.8,1.3c3,0,6-.2,8.9.6s2,2.5,3.5,2.4c2.8,0,5.7-1.9,8.6-2.1l-3.5,4-.9-1.9c-1,1.3-12.1.3-10.6,3.4,4.1,5.1,9.3-3.3,10.6,1.6l6.4-1.1-3,3.5c-.4,2.1,1,1.7,2.5,1.5,5.7-.6,12.4-5.2,18.5-5,.5-3.7-3.6-5.5-4-9ZM1813,1134c-.1-.1,0-2.3-1-3.5-1.4-1.9-10.2-7.1-11.9-4.3-1.6,5.8,1.5,3.6,3.4,6.9l3.5-2c-.2,2.5-2.2,4.2.5,6l4.5-2-1.9,4.4c3.8,6.2,7-1.9,9.9-4.9-1.4-3.1-6.1.3-6.9-.5ZM1895.9,1128.1c-.3-.4-6-1.6-5.9.4s2.5,1.7,2.6,3c.3,2.9-3.7,4.8-3.7,7.5,2.5-1,9-8.6,6.9-10.9ZM1985.5,1130c-8,5.5,1.1,8.4,2.3,3.3l-2.3-3.3ZM1880,1131c-4.9.5-9.7,2.5-14.3,4.2s-9,4.8-11.7,5.3c-3.8.8-6.7-2.2-8,5.4l-1.6-4.9c-7.8.5-15-2.8-21.9-5.9l-7.4,8.1,3.4,2.7-.5-4,3.6,3,6.4-2c.1,2.3.2,6.7,2.7,7.8,4,1.7,17.4,2.9,21.6,2s3.8-5.6,6.3-8.7,4.4-2.9,6-5l-.5,4,4-3-2.5,7c2.9-3,4.5-7.7,7.5-10.5s5.5-2.6,7-5.4ZM1950.9,1137.1l-5.9-2.1c-.7,3.8.9,6.6,2,10,2.3,1.7,4.8-6.3,3.9-7.9ZM2038,1138c-6.9.1-6.5,6.3-12.7,9.8-13.2,7.5-29.6,13.6-44.8,14.2-4.5.2-7.3-.7-11.5-2v4.4c.1,0,1.6,1.5,1.6,1.5h7.4c0,.1-6,2.6-6,2.6,8.6,6.2,12.1-2.9,19-5.5.1,3.6-5.2,2.8-4,7,3.3.1,4.8-4.4,8-1.5l-7,5.5c5.4,1.3,6.6-1.8,10.5-4,1.1.6-3.3,3.6,0,4s9.1-5.1,12-8l-1.5,5c2.5,2.2,7.1-7.4,10-8l-4,7,6,1c0,1.4.3,2.7-.5,4-2.3,3.9-22.2,6.7-23.5,12.5,4.9,2.5,9,5.8,15,4.5v-4c1.7-.5.5,1.9,1.5,2s2.3,0,3-1c2.9-8.2,13.1-19.2,15.1-27s-.6-4.1-.4-5.4,4.4-4.5,5.3-7.6,1.7-10.5,1.5-11ZM1808,1162v-9.4c-1.1-2.7-6-.6-7.6-3.6s.6-2.8,1-4c1.8-5.3-5.5-1-5.3,3.3s4.1,10.4,6.3,14.8,1.7,8,4.2,8.8l8.3.2c.7-.6-2.5-10.4-.5-11s1.3,2.2,1.5,3.5c.3,3-.7,5.4,2.5,7.5l1-8,2.1,8.1c6.7,2,13.8.6,20.5-.6,2.1-.5,9.9-11.7,8.9-12.5l-32-4-1,4c.9-6.5-8.7-9.2-8.9-2.4s2.7,6.2-1.1,5.4ZM1962,1147l-6.3-.9c-8.3,6.4,1.8,11.9,3.8,18.9l2.5-.5-2-7.5,3-.5-7-2c3.3-1.7,4.3-4.4,6-7.5ZM1801,1184c.8-.7,2.2-7.8,2-9.4s-1.9-4.3-2.5-6.5c-1.2-4.5-1-9.3-4.9-13-5.3-.3,5.2,15.3,5.3,16.6.2,2.3-2.7,3.8-2.8,6.8s1,7.6,3,5.5ZM1856,1172c-2.9.9-9.8,2.9-12,4.5s-.2,2-.6,2.5c-2.6,2.7-6,5-7.3,9l16.5-10,1.5-2-2-1,4-3ZM1811.9,1177.1l-3.4-1.9c-4,2.9-3.6,4.8-1.5,8.8,1.8,1.5,5.4-6.2,4.9-6.9ZM1817,1178c-2.5-2.3-8.9,8.7-9,11,1.8,1.8,9.8-10.3,9-11ZM1829,1178l-9.8.2c-2.8,6.4-11.2,12.4-8.2,19.8-3.4.2-3.7-4.5-4-7-5.5,4.5,5.7,13.6,5,20,1.9-.8,4.3-5.5,4.1-7.4s-1.8-.6-2.4-1.8-2.4-8.4-2.2-8.8c.7-1.5,3.6-1.8,5-3,2.1-1.9,3.8-7.2,7.1-8.9.7,2.9-3.3,5-4.3,7.7s-.7,2.7,1.3,2.3l8.5-13ZM1841,1178c-9.1-2.2-15.2,4.9-17,13l9.5-10,2,3,5.5-6ZM1987,1180c-3.7-1.2-9.3-4.8-9,2,2.8-.3,7.5,1.3,9-2ZM1999,1182c-6.6-.8-13.3-1.1-18.5,3.7l-2-1.7c-2.3,1.6-1.4,4.4-1.5,7l2-4c1.8-.3.8,3.9,2.5,4s4.2-3.1,3.5-5c3.3-.7.6,2.7,4.2,1.8s7.1-2.7,8.5-3.6,1.7,0,1.3-2.2ZM1836,1207c2,2.1,12.2-12.8,13-14.5s1.3-2.6,1-4.5c-3.7,5.5-17.6,8.3-21,11.7s-9.7,18.5-8.9,19.3c2.3.3,2.6,0,3.9-1.6,2.7-3.5,5.9-14.1,9.6-16.4s5.1-1,7.5-4.9l-5,11ZM1987,1206c.4-5.3-4.2-9.3-7.5-13-2.1-.4-1.7.8-1.3,2.3s6.2,13.7,6.8,14.2,1.1.6,2,.5l1-3c-1.7,6.1.9,9.6,2,15.3,1.5,2.9,5.8-3.1,5.8-3.9s-2.6-1.8-2.8-4,1.8-7.7,2-10.5c2.5.5-.3,4.8,0,6.4.8,3.4,6.6-.6,8-1.9s7.5-11,7-11.5c-4.8.8-9.8,5.7-14.7,5.7s-5.2-3.5-8.3-3.7c-.5.5,2.8,6.5,0,7ZM1817.9,1218.9l8.1-17.9c-4.9,4.7-7.4,11.8-11,17.5l2.9.4ZM1827,1216c4.5-2.7,7.1-7.7,7-13-1.5.6-2.8,3.5-3.5,5-1.3,2.3-2.5,5.5-3.4,8Z"/>
  <path class="st0" d="M2016,958.5l-2,1-2-1.5c-.5,4.3,0,12.7-6,11l-1-4-1.5,5-3.5-4c.7,4.9-2.7,6.2-7,6l-1-6c1.1,4.5-1.3,9.1-6.4,8.1s-.5-6.7-2.6-7.1v8.3c-8.4,5.6-3.8-4-4.5-8.3-3.4,3.6-2.4,7.7-1.5,12l-7,2,2-6c-1.9-.5-3.2,1.7-4.7,1.9s-2.4-2.4-4.3-1.9c-.6,2.4,2.4,2.9,2.8,4.6.7,3.5-5.5,5-7.3,7.3l-1.5-4-4.5,8,2.5-10c-2.9-.5-1.6.7-2.2,2.2s-2.9,10.2-4.7,7.8l3-8.4-2.5-2.6c-3.9,4.6-.5,10.4-8.1,10.9-.9,3.5.5,8.2-3.4,10.1-.6-.8.7-7-3-6-.7.9,5.7,12.9-1,13l-2-7v16s2,.5,2,.5c-3.9,5.4-.9,4.5,0,6.3s.7,6.4,0,8.5-1.9.7-2,1.4c-.5,3.8,3.6,13.5,3.1,17.8s-4.9,5.1-7,7.1c.2,4.1,3.7-1.3,5-1.5.9,3.8-4.1,4.3-6,7.5l5-2.5c.2,2.1,0,3.5-1.4,5.1s-4.7,1.1-4.7,3.3v7.6c0,0,9.1-6,9.1-6-2.8,6.9-4.3,13.6-3,21l2.5-.7,1.4,1.3c.6,2,.3,14.3-.9,15.4-2.1,1.9-1.6-3.5-4-2l-2,5-1-6v10c-5.1-1-10.3-1.8-15.4-.1l-3.6-7.9c3.6,21-10.4,2.7-2.8-5.8,3,.7,5.2-2.8,6.4-3.1s7.8,3.5,11.4.8l-3-2,2.5-7c-1.4,1.4-5.8,8.5-8,5l-1-3c-4.8,2.2-3.9,9.1-10.5,8,.4-2.3,3.1-1.2,4-2.7s1.6-6.4,2-8.3l-6,5c1.5-4.1-2.3-4.1-2.9-5.6s-1.2-6.4,1.8-5.4l2,6c2.4-4-2.2-10.8,4-8l-2-10c3.6.7,5.1,12,6.5,12l5.5-3.5c1-1.8-4.4-1.9-6-4s-1.3-5.7-2.5-7.6-2.2,0-3-.9c-3.1-3.4-1.4-18.2.5-16l2,4,4-12v14s4.5-10,4.5-10c3.4,2.7,0,6.6.5,10,2.8.4,1.9-.5,2-2.5.2-3.4-1.1-9.1,4-7,.7,1.9-1.9,8.2,2,7.5-2.3-3.9.7-7.8,0-12h-6.4c0-.1-1.5-1.7-1.5-1.7-1.6-5.7.7-10.8-2.2-15.8,4.7,1.1,0-2.9-.5-4.5-2.1-6.8,3.4-12.1,4.5-18.6l4.1-.5c.4,2.9.6,6.4,1.3,9.2s.3,3,1.7,2.8l-2-18c-6.8.2-7.3,9.6-12.5,13-4.6-6.9,3.5-12,5.5-18l-3,2-.5-2c-4.4,2.8-2.4,10.1-8.5,10l7.5-22c-1.3,1.2-2.1,2.7-2.7,4.3-2.2,5.2-7.7,19.3-8.8,24.2s1.2.8,2,.5l-.5,3c-11.9-2.2-23.2-5.7-34.4-10.1v-8.9c-3,.4-1.8,7.6-2.1,8-6-.2-7.6-3.1-9.5-8l-1,5c-2.6-1.2-1.9-4.4-2.8-5.7s-4-.4-1.7-5.3l-7,.5c.1-3.1-1.8-2.5-2.8-4.1s-.8-4-2.1-4.9c-5.8-4-4.7,2.7-9.9,1.4l-3.1-9.9c-4.2-.8.3,5.3.8,7.7s.3,3.5.2,5.3c-3.5.9-1.9-6.8-3-8-4.6-.7,2.1,6.4-3.5,7-6.7-3.7-4.8-23.3,2-23,1.7,5.7,10.2,9.9,15.5,12.6,17.1,8.8,37.5,16.5,55.3,24.7,2.9,1.3,6.1,0,5.7,4.8l4.9-4.7c.3-2.4-1-4.2-.9-6.7s3.4-6.6,0-7.6l-1,8c-2.7,2.6-22.5-12.2-26-14.6s-1.6-2.6-2.3-3.1c-5.1-3.6-19.5-3.4-18.7-11.3l-2,4c-3.7.7-2.1-5.7-5-4s.6,2.9-2.5,2c-4-4.3,1.9-8.6-2.5-13-1.6-.9-6.2,10-8,8l2-8c-2.4.4-2.8,6.6-5.5,6-4.4-1-2.7-9.8-3.5-13-3.9-1.2-.9,6-2.5,6l-2.5-6c-.4,3.1.8,7.2-.5,10s-4.5,6.6-4.9,7.1-4.8,3.9-5.1,3.9c-5.4.1,5.2-8.8,5.3-9.6.3-1.5-2.8-7.8-2.9-8.9,0-1.8,2.5-2.5,2-4.5-3.6,1.2-9.8-3.5-10.5,3-4.2-2.3,2.1-6.8,4.6-8.4,11.9-7.7,21.8-.7,33,2.9,25.2,8.1,36.7,15.9,59.3,26.7,4.8,2.3,15.3,7.2,20,6.8s9-2.9,13.1-2.9,12.8,3.6,17.2,3.7,28.7-18.6,34-21.5,31.2-16.7,37.1-13c4.7,7-2.2,14.1-.8,21.8l5-13c-.9,4.8-1.3,9.7-2,14.5s.4,3.3-1.5,4.5c-3.6,0,1.2-4.9-2-6l-.5,3c-4.8.3-.7-6.7-.3-8.6s-.8-2.3-.4-3.6,3.1-5.4,2.8-5.8l-3,1c0-2,.8-3.6-2-3-.2,4,1.3,9.6-3,12l-2-13v16.5ZM1930,1020c-1.8-2.2-6.9,7.7-2,9l1-4,2,5-1-10Z"/>
  <path class="st0" d="M2037.7,1053.7c-.6.7-2.1.9-2.7,1.8,7.8-1.6-.9,6.5,0,7.5,5.5-2,12.1,7.9,9.1,12.6s-13,8.8-5.7,8.3,6.7-1.5,7.4,3.8-4.4,5.1-.8,9.3l-4,2.5,4-.5c.4.5-2.5,11.9-3.2,12.8s-5.3,2.7-7.2,4.3c-3.6,2.9-4.5,7.6-10.5,7l2-2.5c-3.6-1.3-6.3,4.6-8.6,6.4s-6.9,2.2-9.9,4.1c-2-2.1,5.1-5.3,3.5-7l-4,3-.5-3c-2,3.4-4.2,5.1-7.1,7.4s.2,2.4-2.3,1.6l-3-3v4c-1.4,1.5-6.7-4.5-6.9-5.6s2.5-2.4,1.9-4.4l-4,2c-.1-1.9-2.4-5.2-4-3.5l3.9,5.9c-6.6,9.3-10.2,5.1-15.4-2.4l-.6,2.9h-3.8c-.4-4,.2-4.9-3.6-6.9s-5.7,0-1.5-2.5,3.5.8,5.4.5c19.3-3.1,42.6-3,60.5-13.6,5.3-3.2,7.4-10.3,14.1-7.4.2-3,1.6-7.3-2-9-.3,2.7-2.2,4.5-5,4l-1-5-.4,7.1c-1.1,1.5-6.1,1.4-7.1,0s.4-5.3-2.4-6l.5,9-2.5,1v-4s-3,3-3,3l-2-3,.9,6.3c-1.6,3.9-6.3,1.6-7.9,2.2s-9,7.7-10.4,2.4c-2.6,2.6-7.4,4.6-11,5s1.1-4.5-2-3-4.5,4.5-8.5,4l2-6c-1.3,3.2-19.7,1.6-17-2l7-2c-4.2-.2-11,.5-14-3l10,1-1-2c7.1,0,14.4-.1,21.4-1.1s38.7-7.9,42.7-13.3c1.5-2,0-3.5.4-4.6s2.3-1.7,2.8-2.9.5-4.6,1.6-6c-5.7,3.3-6.6,8.6-13.5,11l.5-5c-4.2-1.6-4.1,2.4-5.6,2.9s-2.4-.7-3.4-.3-4.7,5.4-5.5,5.4l-3-3c-1.6,2.3-4.3,3.6-6.2,5.3s0,2.1-.9,2.7c-1.9,1-6.1.5-8.3,2l2-3.5c-1.9-1.4-4.2,2.6-6.4,3.6s-5.4,1-8.6.9l.5-3c-3.7,2.5-5.7,3.8-10.5,3-.7-3.9,3.6-5.1,5-8-6,2.7-10.3,4.2-17,2v-3c2.9-.5,6.6,2.7,8-1l-3-.8v-2.1c-.8-.8-6.3,1.1-7-2.1l3.5-1.5c16,1.7,33.6,4.5,49.6,1.1s25.1-8.4,26.9-10.1,1.4-1,1-2.4l-9,1.5,12-8-3.5.5-1.5-2.5,8.5-8.5c1.8,1.6,3,3.6,1.2,5.7Z"/>
  <path class="st0" d="M2035,1024c.6,5.2-2.9,5-6,7.5l4-.5c4.5,11,.1,17.8-9,24l2-9.5-3,2.5c-.9-2.5,3.7-7.3,1-9l-6,17,2-.5c2.9,1.4-1.9,9-5,7.5-.2-.2,1.9-5.2-.5-5s-1.3,5.8-3.2,7.1-7.7,2.5-8.3,1.9l-1-3c1.4,3.7-4.7,5.5-5,3.3s.7-2.6-1-2.3c-.4,2.1-1.3,5.3-4,5-.3-.3.8-11.7-2-8l-.9,8.6-8.1.4.5-6-2.6,5.9c-7.9.4-12.3,1.9-10.9-7.9-2,1-2.8,5.1-2,7h-3c1.5-4.4-.2-10-2.5-14l.5,8c-2.6-1-3.3-3.4-3-6l-2,.7-.5,2.3c-4.2-2.1-5.8-4-8-8-3.2,4.5,3.4,7.1,2.5,12-2.6-1.9-1.7-4.2-6-3.4l-2-13.6c4.1-1.4,3.8,2.4,6.7,2.8,12.3,1.9,55-5.8,67.3-10.3s12.3-5.5,10-7.5h-4c-.1-.9-.1-1.3.5-2s11.8-7.7,12.5-7Z"/>
  <path class="st0" d="M1900.9,1018.1c.8,1-2.3,12.9-3.2,13.7-3.1,2.8-7.8.4-4.7-4.2l-2-.5c-.1,3.7-3.7,6.8-7.5,6s.8-3.8.5-4c-3.8,1-5.8,5.2-11,4l3-5c-1.2-1.1-5.2,3.8-7.5,3.9s-6.5-2.3-9.4-2.1l-2.2-10.8c-1.8-.2-1,2.2-.9,3.4.2,3.1,3,5.3-2.1,4.6l-2-13-2,.5.5,4.5c-1.5,2.3-4.4-2.1-5,2-1.1-.4-3-9.3-6.5-9,4,5.4,1.5,9.7-5,10l3-6-2.8.9-.7-1.9c-2.3,2.1-.2,5-4,6l2.5-15-5.3,12.4-4.7-.4,2-6.4c-1.8-.9-2.3-1.4-2-3.6-1.8.2-.5,2.2-2.6,3.9s-3.4,1.1-4.4,2.6l-2-1c.9-2.6,5.5-20.4,7.5-20.5,5.2,6.3,12.6,5.6,19.5,7.5,15.7,4.4,30.7,8.8,46.2,13.8,4.8,1.5,9.8,2.5,14.7,3.8Z"/>
  <path class="st0" d="M1820,1022c-.3,3.1,2.9,1.6,5.1,2.4,9.5,3.3,17,6.5,26.9,9.1,15.8,4.1,29.6,6.2,46,4.5v4s3-4,3-4c1.3,4.2-2.1,4.2-3,5.7s-2.8,11.8-4.5,12.3l-2.5-.6-.5-8.4-2.5,9-1.5-13-1.6,14.9c-13.3,1.4-21.4,4.3-10.4-9.9s2.7-1.9,1-3l-6,6-2.5-4,1,12c-3.4,0-13.2,1.3-12-4.5s4.4,4.1,6,2.5c-2-3.4-3.8-4.8-2-9-2.8.7-3.7,2.1-4,5h-2.9c0-3.4-3.2-5.6-1-9-2.4-.3-3.8,2-4,4-5.4-.9-3-4.6-2-8l-5,9c-2.5-.2.9-5-3-4l-1,6h-3s-.5-6-.5-6l-3.5,4c-2.1-5.3,4.6-8.8,5-14-5.3-.9-4.2,6.2-8,8-2.7-8.2-13.7-10.2-9-21h2Z"/>
  <path class="st0" d="M2009.9,976.1c7,10.5,2.6,14.6-.9,24.9l-3-3c-.2,1-.5,2.6-1.1,3.4-3,3.7-20.1,6.9-25.3,9.5-3.1-.8-.5-9.5-2.1-11.9l-3.5,12-3-2-.5,4-3.5,1,1-10-3,2-1-6-1,3.3-6,5.7-2.9-11.9,55.7-21Z"/>
  <path class="st0" d="M1952,1036c-3.5.3-6.2,4.9-10,5,.2-4.8,6.8-7.7,5-12,21.7-3.3,41.6-10.6,62.2-17.3s2.9.4,4.1.1c2.2-.6,4.8-4.9,6.7-6.4,4.7,3.4,4.5-1,8-2s2.9.6,3,.6c.8-.6.9-8.5,4-9-2.9,5.9-.4,17.6-9,18l-1.5-5-11.5,5c-.6,5.1,5.8-1,7,0-3.4,6.7-.6,13.7-8.5,18l-1.5-2-2.5,5-2.5-6-1,8c-4.3,1-.8-7.7-5-7l1,8h-3c-1.3-4.4-1.1-7.7,0-12-3.3,1.7-4.4,6.6-5,10l-2-.7-3-5.3c.3,3.6,4.1,7.8.5,11-.7-4.8-8.3.9-9.5,0l2-3-2-.5,3-4.5-9.5,9c-3.4-2.6,2.6-5.6,3.5-8-4.7-1.5-3.6,3-7,3v-5c-4.3-.7-.7,5.1-1.2,7.3s-3.8,4-4.8,2.1l-2-7.3c-1.3-.3-2,3.9-2,4.4s5.4,2.2-.5,4.5l-1.5-10c-2.8-.7-2.4,2.6-4,4,.7,0,1.3,0,2,0l-.2,4.8-7.8,2.2,6-7Z"/>
  <path class="st0" d="M2038,1138c.3.5-1.1,9.8-1.5,11-.9,3.1-5.1,6.5-5.3,7.6s1,2.8.4,5.4c-2,7.8-12.2,18.8-15.1,27-.7,1.1-1.9,1.2-3,1s.2-2.5-1.5-2v4c-6,1.3-10.1-2-15-4.5,1.3-5.8,21.2-8.6,23.5-12.5s.5-2.6.5-4l-6-1,4-7c-2.9.6-7.5,10.2-10,8l1.5-5c-2.9,2.9-7.5,8.5-12,8s1.1-3.4,0-4c-3.9,2.2-5.1,5.3-10.5,4l7-5.5c-3.2-2.9-4.7,1.6-8,1.5-1.2-4.2,4.1-3.4,4-7-6.9,2.6-10.4,11.7-19,5.5l6-2.5h-7.4c0-.1-1.5-1.7-1.5-1.7v-4.4c4.1,1.3,6.8,2.2,11.3,2,15.2-.6,31.6-6.6,44.8-14.2,6.2-3.5,5.8-9.7,12.7-9.8Z"/>
  <path class="st0" d="M1813,1055c4.5.7-.5-5.1,1.5-7,5,1.9,12.4,4,16.8,7s1.5,2.9,2.7,3.6,3.3-.5,5-.1,6.1,3.4,9.7,4.3c8.7,2.2,27.3,2.4,36.6,2.3s3.7-5.5,7.6-2.5c-1.7,5.1-3.4,11-8.5,13.5l-2-2c-3.3,4.2-7,6.2-12.5,6l1.5-6c-5.6,4.5-11,10.4-15,1l-2,4c-.9-.9-2.7-.8-3.5-1.5-2.7-2.1,1.5-5.3-1.5-7.5l-.5,7c-3.4.9-1.8-4.8-3-6-3.7-1.1-1.2,4.2-2,5-6.1.4-6.3-4-6-9l-3,4-3.5-7-1.4,6.6-4.1.4,3-5-6,4c-2-3.6,2.7-9.2,2.6-10.5s-2.5-5.9-4.1-5.5c-3.7.9-2.4,5-2.7,6.3s-1.9,1.9-2.2,2.7,0,4.6-.6,5c-.9.6-3.3-.4-4.1-1.4-1.6-2.1.1-5.1-1.9-5.6l-3,8.5,3,3.9c-1,2-2.9.3-4,1-3.5,2.2-2.8,18.2-4.5,22.5-2.3-2-2.7-4.5-2.5-7.4s3.6-12.8,4.2-13.9,2.6-1.5,2.8-2.4c.7-2.6-1.4-6.1-1-7.7s2.8-1.2,3-2.3c.5-2.4-4.1-15.7,1.5-15.1s3.7,4.8,3.5,6.7Z"/>
  <path class="st0" d="M1879,1120c3.3-.7,5.8-2.1,9-2,1.1.8-18.8,12.5-22,10l2.5-12c-3.4,1.6-11.6,20.6-15.5,17,.5-4.8,6.2-9,4.5-14-3.1,3.2-7.8,16.5-12.2,16.8s-2-1.3-2.8-1.3c-6.3-.3-9.1-.3-15.2-3.3-6.4-3.1-7.4-4.7-9.8-11.2l-.5,3-2-1.6,3-7.4-5,4c-2.8-15.6,5.6-7.3,13.2-4.7s7.1,2.4,9.4,2.6c12.7,1.6,32.4-8,45.4-9.9l-2,4.6-4-.6-3,14c3.1.5,4.9-2.4,7-4-1.6.3-3.3-.2-5,1l1.5-7,4.5-1,2,4,.5-6,3.5-1-1,4,2,.5c-3.1,1.3-5.1,3.4-8,5.5Z"/>
  <path class="st0" d="M1825,1096c.8-6,.9-4.3-4-9v6s-4.5-10-4.5-10c-1.8,2.1,7.5,14.3,1,13s-4-10.2-3.5-13l-1.5,2c-3.7-1.8-4.9-9.8-.8-10.9s25.9,12.5,30.3,14.4,8.6.3,9,4.5l3.5-3c11.9.1,23.9-1.6,35.5-4-3.7,2.9-9.9,6.2-14.3,8.2s-3-.4-3.7.2-.7,2.6-1.3,3.2c-1.8,1.9-11.4,9.4-13.7,7.3l2-3.5-4.5-1.5c-.7,6.2-12.2,11.8-12.5,4-3.3,3.4-6,1.1-10,1l2.5-2-.5-3-6,3c.6-3.2-.3-5.5-3-7-.2,1.6.2,3.4,0,5l-7-2.5,2.5-2.3,2.5,1.8v-3c.1-.2,1.5.7,2,1Z"/>
  <path class="st0" d="M1808,1162c3.8.7,1-3.2,1.1-5.4.3-6.8,9.8-4.1,8.9,2.4l1-4,32,4c.9.8-6.8,12-8.9,12.5-6.7,1.1-13.7,2.6-20.5.6l-2.1-8.1-1,8c-3.3-2.1-2.2-4.5-2.5-7.5s.9-4.2-1.5-3.5,1.2,10.4.5,11l-8.3-.2c-2.5-.8-3-6.5-4.2-8.8-2.2-4.4-6.1-9.5-6.3-14.8s7.1-8.6,5.3-3.3-2.3,1.6-1,4,6.5,1,7.4,3.6v9.4Z"/>
  <path class="st0" d="M1880,1131c-1.5,2.9-4.6,3.1-7,5.4s-4.6,7.6-7.5,10.5l2.5-7-4,3,.5-4c-1.6,2.2-4.4,3-6,5-2.5,3.2-1.6,7.7-6.3,8.7s-17.6-.2-21.6-2-2.5-5.5-2.7-7.8l-6.4,2-3.6-3,.5,4-3.4-2.7,7.4-8.1c6.9,3.1,14.1,6.4,21.9,5.9l1.6,4.9c1.3-7.6,4.2-4.6,8-5.4s8.5-4.1,11.7-5.3c4.6-1.7,9.3-3.7,14.3-4.2Z"/>
  <path class="st0" d="M1997,1141c0-.8-.4-1.9.6-2,7.1-1.8,15-3.4,21.9-5.9s6.1-3.8,8.5-3.5l-9,8c-.2.7,1,.7,1.5.5,2.2-.9,8.2-6.9,10.1-9s4.9-7.2,7.9-10,1.7-2.3,3.5-2c.1,14.3-9.9,24.8-23.4,27.9l-3.6-7.9c-1.6,4.5,4.4,9.2-1,10.6s-1.2-9-8.1-6.6c-.4.3,4.5,6.5,2.5,8-6.8.5-7.2-6-11.5-8,.4,3.5,4.5,5.3,4,9-6.1-.1-12.8,4.4-18.5,5s-2.9.6-2.5-1.5l3-3.5-6.4,1.1c-1.3-4.9-6.5,3.5-10.6-1.6-1.5-3.1,9.6-2.1,10.6-3.4l.9,1.9,3.5-4c-2.8.2-5.7,2-8.6,2.1s-1.2-1.8-3.5-2.4-5.9-.7-8.9-.6l2.8-1.3c5.9-.4,13.2,1.5,18.7,1.4,5.7,0,10.3-4.6,15.6-2Z"/>
  <path class="st0" d="M1808,995c1.7-1.2,3.3-3.4,5.5-3l.5,2,3.5-3c.6,8.2-12.6,12.2-10,21l5.5-7-4,22h2.5c.8,2.8,2.3,12.3-1.1,14s-1.2-4.1-3.5-4l1,7.5c-6.9,2.3-2.7-8-2-11.9l-2.1-1.1,3.1-11.4-7,9c-.6-3.3-1.2-6.1-1.1-9.5s2.3-11.2,3.2-12.3,1.3.7,2.9-.5,7.5-9.1,8-10.1.3-1.6-.5-1.5l-8.5,9c.6-3.5,3-5.3,4-9-.6.5-3.8,3.2-4,3l2-14c3.6,2.6,3,7.4,2,11Z"/>
  <path class="st0" d="M2030,977l-1-5c-3.1,1.5,2.1,7.3-1.5,9s-1.4-5.2-3.5-5l.8,12.4c-9,3.6.4,12-7.8,14.6l1-4h-6s2-7,2-7l4,2-3.6-20.1,16.1-6.9c4,7.5,3.3-1,5-1,5.2,0-3.7,12.6-5.5,11Z"/>
  <path class="st0" d="M1987,1206c2.8-.5-.5-6.5,0-7,3.1.2,5,3.7,8.3,3.7,4.9,0,9.9-4.9,14.7-5.7.6.5-6.1,10.6-7,11.5-1.3,1.3-7.2,5.3-8,1.9s2.5-5.9,0-6.4c-.2,2.8-2.3,8-2,10.5s2.8,3.3,2.8,4-4.3,6.8-5.8,3.9c-1.1-5.7-3.7-9.2-2-15.3l-1,3c-.9,0-1.3.1-2-.5s-6.4-12.9-6.8-14.2-.8-2.7,1.3-2.3c3.3,3.7,7.9,7.7,7.5,13Z"/>
  <path class="st0" d="M1794,1102c.9,5.2,3.6,11.3,4,16.5s-1.3,7.4-1,9.9,3.5,5.6,4,8.1l-4-.5,2,5c-2.9,3.1-7-13.6-7.1-15.5s1-4.3.8-5.9c-.3-3.4-4.6-5.7-3.5-10.9s3.2-8.4,4.8-6.7Z"/>
  <path class="st0" d="M1829,1178l-8.5,13c-2,.4-1.8-.8-1.3-2.3,1-2.7,4.9-4.8,4.3-7.7-3.3,1.8-4.9,7-7.1,8.9s-4.3,1.5-5,3,1.8,7.8,2.2,8.8,2.3,1.2,2.4,1.8c.2,1.9-2.1,6.5-4.1,7.4.6-6.4-10.5-15.5-5-20,.3,2.5.6,7.2,4,7-3-7.4,5.4-13.4,8.2-19.8l9.8-.2Z"/>
  <path class="st0" d="M1836,1207l5-11c-2.5,3.9-5,3.3-7.5,4.9-3.6,2.3-6.9,12.9-9.6,16.4s-1.6,1.9-3.9,1.6c-.8-.7,7.7-18,8.9-19.3,3.4-3.4,17.3-6.2,21-11.7.3,1.9-.1,2.9-1,4.5s-11,16.6-13,14.5Z"/>
  <path class="st0" d="M1999,1182c.5,2.3-.2,1.6-1.3,2.2s-7,3.2-8.5,3.6c-3.7.8-.9-2.5-4.2-1.8.7,1.9-2.1,5.1-3.5,5s-.7-4.2-2.5-4l-2,4c0-2.6-.8-5.3,1.5-7l2,1.7c5.2-4.8,11.9-4.6,18.5-3.7Z"/>
  <path class="st0" d="M1962,1147c-1.7,3.1-2.7,5.8-6,7.5l7,2-3,.5,2,7.5-2.5.5c-2-7-12.2-12.6-3.8-18.9l6.3.9Z"/>
  <path class="st0" d="M1948,1001c.4,4.7-.7,18.1-6,19.6s-3.6-.5-4.1-.2c-1.3,1,0,3.8-1.9,3.6-1.5-7.5,2.2-6,4.7-8.3s2.1-4.4,5.2-4.8l-1.7-7.2,3.8-2.6Z"/>
  <path class="st0" d="M2033,993l4-15-3,5-3-2.5,6.6-7.5c2.9,6,3.5,17.5-4.5,20Z"/>
  <path class="st0" d="M1813,1134c.8.8,5.6-2.6,6.9.5-2.9,2.9-6.1,11.1-9.9,4.9l1.9-4.4-4.5,2c-2.7-1.8-.7-3.5-.5-6l-3.5,2c-1.9-3.2-5-1.1-3.4-6.9,1.7-2.8,10.5,2.4,11.9,4.3s.8,3.4,1,3.5Z"/>
  <path class="st0" d="M1856,1172l-4,3,2,1-1.5,2-16.5,10c1.4-4,4.7-6.3,7.3-9s-.2-1.8.6-2.5c2.2-1.6,9.1-3.6,12-4.5Z"/>
  <path class="st0" d="M1797,1087l1-11-4.5,5c-3.6-4.8,10.5-15.5,9.1-8s-2.6,11.5-5.6,14Z"/>
  <path class="st0" d="M1800,1108c1.7.3,1.1-2.4,1-3.5-.2-2.2-1.3-4.3-1-6.5,5.4.7,15.6,11.4,5,10v4c-2.7.7-2.5-2.2-3-4l-2.5,2c-3.7-5.3-6.8-9.6-3.5-16,3.4,3,2.7,9.8,4,14Z"/>
  <path class="st0" d="M1912,1041l1.9-7.5c-5.1-2.1-2-4.6-2.4-8s-2.6-3.9-1.5-6.5c3-3.6,5.9,15.4,5.9,16.6,0,2.3-1.1,5.6-3.9,5.4Z"/>
  <path class="st0" d="M2035,1022c-4.4-.8-6.7,1.9-10,4l2-4.5-2-1,9.5-7.5.5,9Z"/>
  <path class="st0" d="M1841,1178l-5.5,6-2-3-9.5,10c1.8-8.1,7.9-15.2,17-13Z"/>
  <path class="st0" d="M1950.9,1137.1c.9,1.5-1.5,9.6-3.9,7.9-1.1-3.4-2.7-6.2-2-10l5.9,2.1Z"/>
  <path class="st0" d="M1953,1009c1.4,5.9,3.7,10.8-5,10-.6-.5,2.2-7.6,2.8-8.7s0-1.7,2.2-1.3Z"/>
  <path class="st0" d="M1801,1184c-2.1,2-3.1-4.8-3-5.5,0-3,3-4.5,2.8-6.8s-10.6-16.9-5.3-16.6c4,3.7,3.7,8.5,4.9,13s2.3,4.5,2.5,6.5-1.2,8.7-2,9.4Z"/>
  <path class="st0" d="M1826,1047c-4.4,0-5.2-3.2-5-7l-3,4-1-10c4.7,2.8,6,8.7,9,13Z"/>
  <path class="st0" d="M1894.2,1070.2c-1.2,1.9.6,9.4-4.2,10.8l2.9-6.6-1.9-1.8,3-9.5c6.7,4.2,1.2,5.5.2,7.2Z"/>
  <path class="st0" d="M1889,1091l-7.1,5.4-5.9,2.6c1.6-5.5,7.5-8.6,13-8Z"/>
  <path class="st0" d="M1898.3,1076.7c.9,1.3,3.9,1.1,2.7,5.3l-3-2c0,2.3-1.1,5.2-4,5-.4-1.5,2.7-12.4,4-11,0,.9-.2,2,.3,2.7Z"/>
  <path class="st0" d="M1817.9,1218.9l-2.9-.4c3.6-5.7,6-12.8,11-17.5l-8.1,17.9Z"/>
  <path class="st0" d="M1961,1070c-5.2-.2-8.2-4.2-9-9,3-1.1,10.1,7.9,9,9Z"/>
  <path class="st0" d="M1811.9,1177.1c.5.7-3.1,8.3-4.9,6.9-2.2-4-2.5-5.9,1.5-8.8l3.4,1.9Z"/>
  <path class="st0" d="M1895.9,1128.1c2.1,2.4-4.4,9.9-6.9,10.9,0-2.7,4-4.6,3.7-7.5s-2.6-2.5-2.6-3c0-2,5.6-.8,5.9-.4Z"/>
  <path class="st0" d="M1855,1058c-6,.7-9.6-3.9-5.5-9l5.5,9Z"/>
  <path class="st0" d="M1817,1178c.8.7-7.2,12.8-9,11,0-2.3,6.5-13.3,9-11Z"/>
  <path class="st0" d="M1949,1117c1.7-.4,9.6.5,9,3.5s-9.8.3-9-3.5Z"/>
  <path class="st0" d="M1946.8,1086.2c.5.9.2,1.9.2,2.8-2.2.7-8.7-.3-8-3.5s7-.7,7.8.7Z"/>
  <path class="st0" d="M1944,1120c-2.8.4-1.5-.3-2-1.5s-3.3-7.9-.5-8.5c5.8,1.9,1.7,6.3,2.5,10Z"/>
  <path class="st0" d="M1953.9,1104.1v4.9c-3.3.9-9.1-1.7-4-3.5l-2-2.5,5.9,1.1Z"/>
  <path class="st0" d="M1942,1026l1,4c-3.6-1.4-4.7,4.7-6.5,4-4.5-1.7,4.5-8.9,5.5-8Z"/>
  <path class="st0" d="M1987,1180c-1.5,3.3-6.2,1.7-9,2-.3-6.8,5.3-3.2,9-2Z"/>
  <path class="st0" d="M1836,981c4.2,6.2-6.4,9.3-4.8,3.7s3.7-4.5,4.8-3.7Z"/>
  <path class="st0" d="M1827,1216c.9-2.5,2.2-5.7,3.4-8s2.1-4.4,3.5-5c.2,5.3-2.4,10.3-7,13Z"/>
  <path class="st0" d="M1810,1096l-1-11c3.4,1.6,4.7,9,1,11Z"/>
  <path class="st0" d="M1985.5,1130l2.3,3.3c-1.3,5-10.3,2.2-2.3-3.3Z"/>
  <path d="M1930,1020l1,10-2-5-1,4c-4.9-1.3.2-11.2,2-9Z"/>
</svg>